<svg width="1920" height="1080" viewBox="0 0 1920 1080" fill="none" xmlns="http://www.w3.org/2000/svg">
  <rect width="1920" height="1080" fill="#06090F"/>
  <rect x="110" y="130" width="1700" height="820" rx="34" fill="#0E1728"/>
  <rect x="190" y="214" width="460" height="652" rx="24" fill="#11233D"/>
  <rect x="730" y="214" width="460" height="652" rx="24" fill="#122744"/>
  <rect x="1270" y="214" width="460" height="652" rx="24" fill="#112036"/>
  <rect x="220" y="252" width="400" height="92" rx="14" fill="#1D3A63"/>
  <rect x="760" y="252" width="400" height="92" rx="14" fill="#1E3E69"/>
  <rect x="1300" y="252" width="400" height="92" rx="14" fill="#1A3559"/>
  <rect x="220" y="374" width="400" height="452" rx="16" fill="#1B3050"/>
  <rect x="760" y="374" width="400" height="452" rx="16" fill="#1B3354"/>
  <rect x="1300" y="374" width="400" height="452" rx="16" fill="#162843"/>
  <path d="M650 540H730" stroke="#7DE0FF" stroke-width="6"/>
  <path d="M1190 540H1270" stroke="#7DE0FF" stroke-width="6"/>
  <circle cx="690" cy="540" r="12" fill="#2FC2FF"/>
  <circle cx="1230" cy="540" r="12" fill="#2FC2FF"/>
</svg>
